<?xml version="1.0" encoding="utf-8"?>
<!-- Generator: Adobe Illustrator 25.0.1, SVG Export Plug-In . SVG Version: 6.00 Build 0)  -->
<svg version="1.1" id="Capa_1" xmlns="http://www.w3.org/2000/svg" xmlns:xlink="http://www.w3.org/1999/xlink" x="0px" y="0px"
	 viewBox="0 0 2500 450" style="enable-background:new 0 0 2500 450;" xml:space="preserve">
<style type="text/css">
	.st0{fill:#89CFBF;}
	.st1{fill:#6FC7B5;}
	.st2{fill:url(#SVGID_1_);}
	.st3{fill:url(#SVGID_2_);}
	.st4{fill:url(#SVGID_3_);}
	.st5{fill:#FFFFFF;}
</style>
<polygon class="st0" points="1250,450 1,450 625.5,232.7 1250,15.4 1874.5,232.7 2499,450 "/>
<rect x="2178.9" y="-342.5" class="st1" width="75.2" height="153.7"/>
<rect x="2178.9" y="-188.8" class="st0" width="75.2" height="38.8"/>
<linearGradient id="SVGID_1_" gradientUnits="userSpaceOnUse" x1="1257.728" y1="232.3285" x2="2386" y2="232.3285">
	<stop  offset="0" style="stop-color:#FFFFFF;stop-opacity:5.000000e-02"/>
	<stop  offset="0.9996" style="stop-color:#FFFFFF;stop-opacity:0.4"/>
</linearGradient>
<path class="st2" d="M1413.7,431.9H2386l-567.7-200.8L1257.7,32.8C1347.7,148.2,1403.8,284.7,1413.7,431.9z"/>
<linearGradient id="SVGID_2_" gradientUnits="userSpaceOnUse" x1="1257.728" y1="232.3285" x2="2386" y2="232.3285">
	<stop  offset="0" style="stop-color:#FFFFFF;stop-opacity:5.000000e-02"/>
	<stop  offset="0.9996" style="stop-color:#FFFFFF;stop-opacity:0.4"/>
</linearGradient>
<path class="st3" d="M1413.7,431.9H2386l-567.7-200.8L1257.7,32.8C1347.7,148.2,1403.8,284.7,1413.7,431.9z"/>
<linearGradient id="SVGID_3_" gradientUnits="userSpaceOnUse" x1="1861.0994" y1="344.559" x2="2406.4128" y2="344.559" gradientTransform="matrix(-1.0288 0 0 1 2551.636 0)">
	<stop  offset="0" style="stop-color:#FFFFFF;stop-opacity:5.000000e-02"/>
	<stop  offset="0.9996" style="stop-color:#FFFFFF;stop-opacity:0.4"/>
</linearGradient>
<path class="st4" d="M559.5,437H76l282.3-93L637,252.1C592.3,305.6,564.4,368.8,559.5,437z"/>
<g>
	<path class="st5" d="M1235,258.8l1-6.3c-5.9-2.2-11.8-5-14.4-11.9c-1-2.7-1.7-4.1-2.6-4.5c-1-0.4-2.8,0.1-6.1,1.5l6,15.1l-0.7,0.3
		c-6,2.7-12.2,2.6-17.1-0.2c-5.1-2.9-8.2-8.3-8.9-15.2c-0.4-4.5-2.3-7.1-7.3-9.8c0.1,1.7,0.3,3.3,0.4,4.9c0.3,4.2,0.5,8.2,1.5,11.9
		v0c1.8,7.1,6.8,12.3,16.1,16.9l0.8,0.4l-5.1,8.5l6.4,1.8C1212.4,261.5,1222.5,257.1,1235,258.8z"/>
	<path class="st5" d="M1320.3,228.2c-3.9,2.4-5.7,5.4-6.2,10.3c-0.6,6.1-3.5,11-8.2,13.8c-5,3-11.5,3.3-17.8,0.7l-0.8-0.3l0.3-0.8
		c0.5-1.4,1.1-2.7,1.6-3.9c1.2-2.9,2.3-5.7,3.3-8.6c0.3-0.9,0.3-1.6,0-2.1c-0.4-0.7-1.5-1.1-2.4-1.2c-2.8-0.5-3.8-0.2-4.2,2
		c-0.9,5.1-4,9.1-9.1,11.8c-1.6,0.9-3.3,1.5-5,2.2c-0.6,0.2-1.1,0.4-1.7,0.7l1.2,5.8c1.8-0.1,3.5-0.2,5-0.2c10.6,0,15.5,3,25.2,13.5
		l6.1-1.8l-5.1-8.4l0.8-0.4C1318,253.4,1325.1,239.3,1320.3,228.2z"/>
	<path class="st5" d="M1253.2,221.5c4.2-6.6,4.2-14.7-0.1-21.1C1248.7,206.2,1248.8,215.7,1253.2,221.5z"/>
	<path class="st5" d="M1290.3,273.4c-3.9-5.2-8.1-7.3-13.5-7c-1.3,0.1-3.2,1.1-3.4,1.6c-0.2,1.2,0.7,3.3,1.7,4
		C1279.1,274.8,1283.6,275.2,1290.3,273.4z"/>
	<path class="st5" d="M1229.7,266.4c-5.4-0.4-9.6,1.7-13.6,7c6.5,1.8,11.1,1.4,15.1-1.3c1-0.7,1.9-2.7,1.8-4
		C1232.9,267.6,1231,266.5,1229.7,266.4z"/>
	<path class="st5" d="M1239.2,174.4c-4.3,1.3-8.3,3.4-9.6,8.5c-0.3,1.2,0.3,3.3,1.3,4.3c0.4,0.1,2.6-0.4,3.5-1.2
		C1238.2,182.8,1239.8,179,1239.2,174.4z"/>
	<path class="st5" d="M1276.1,175.9c-3.8,2.9-5.7,6.1-6,10.2v0c-0.1,1.1,0.8,2.9,1.2,3.1c1.1,0.2,2.9-0.6,3.5-1.4
		C1277.1,184.6,1277.5,180.9,1276.1,175.9z"/>
	<path class="st5" d="M1204,246.9c0.4,0.6,1.8,0.8,3,1c0.4,0.1,0.8,0.1,1.1,0.2c0.1-0.4,0.1-0.8,0.2-1.1c0.2-1.2,0.5-2.6,0.1-3.2
		c-1.6-2.1-3.7-4-5.7-5.9c-0.7-0.6-1.3-1.2-2-1.8l-1.5,1c0.4,0.8,0.7,1.6,1.1,2.5C1201.4,242.1,1202.5,244.7,1204,246.9z"/>
	<path class="st5" d="M1298.3,248c0.4-0.1,0.8-0.2,1.1-0.2c1.3-0.3,2.8-0.6,3.3-1.2c1.4-2.1,2.4-4.6,3.3-7c0.3-0.8,0.6-1.6,1-2.5
		l-1.4-1c-0.6,0.6-1.3,1.2-2,1.7c-2,1.7-4,3.5-5.5,5.5c-0.5,0.7-0.3,2.1-0.1,3.5C1298.2,247.3,1298.3,247.6,1298.3,248z"/>
	<path class="st5" d="M1314,264.7c0,0.3,0,0.6,0,0.9c0.3,0,0.7,0.1,1,0.2c1.2,0.2,2.4,0.4,3.1,0c3.5-1.8,5.7-4.8,6.6-9.1
		c-4.1-0.3-7.3,1.4-10.1,5.3C1314.1,262.6,1314.1,263.7,1314,264.7z"/>
	<path class="st5" d="M1181.8,257c1.1,4.6,3.5,7.6,7.4,9.2c0.9,0.4,2.7,0,3.5-0.7c0.2-0.3,0.1-1.9-0.4-2.9
		C1190.7,259,1186.3,256.7,1181.8,257z"/>
	<path class="st5" d="M1306,214.1c5.6-2.8,7.3-6.6,5.7-13.2C1306.7,203.2,1304.7,207.8,1306,214.1z"/>
	<path class="st5" d="M1194.5,200.9c-1,7.7,0.7,11.2,5.9,13C1201.8,207.8,1199.7,203.2,1194.5,200.9z"/>
	<path class="st5" d="M1270.8,245c4-1.1,6.5-3.7,7.8-8.1c-0.7-0.1-1.4-0.1-2-0.1c-3.7,0-6.4,1.5-8.6,4.5c-0.5,0.7-0.7,2.5-0.4,2.8
		C1268.2,244.8,1269.9,245.2,1270.8,245z"/>
	<path class="st5" d="M1235.6,245c0.9,0.2,2.6-0.3,3.3-1c0.3-0.3,0.1-2.1-0.4-2.8c-2.6-3.6-6-4.9-10.7-4.3
		C1229.1,241.2,1231.7,243.9,1235.6,245z"/>
	<path class="st5" d="M1283.6,212.7c1.6-1.8,2.3-4.1,2.2-6.9c-5.3,0.2-7.7,2.8-9.4,10C1279.5,215.6,1282,214.5,1283.6,212.7z"/>
	<path class="st5" d="M1230.1,215.7c-1.8-7.4-4.7-10.3-9.7-9.8C1221.1,212.3,1224.3,215.5,1230.1,215.7z"/>
	<path class="st5" d="M1252.8,152.2c-48.8,0-88.4,39.6-88.4,88.4s39.6,88.4,88.4,88.4c48.8,0,88.4-39.6,88.4-88.4
		S1301.6,152.2,1252.8,152.2z M1282.2,316.6l-0.5,0.2l-9.8-10.3c-4.5-4.7-8.3-9.7-11-12.6c-1.1-1.2-5.2,4-3.9,6.3
		c9,12,17.5,18.9,17.5,18.9c-7.6,2.2-13.8,3-21.7,3c-6.5,0-13-0.8-19.3-2.3c0,0-0.6-0.4,1.1-2.5c5.7-6.9,22.5-28.8,26.6-37.5
		c4.3-9.1,4.1-19.3-0.6-31.2c-2.9,5-4,9.5-3.4,14.5c0.7,6.3-0.4,11.7-3.5,16.5l-0.7,1.1l-0.7-1.1c-3.9-6.2-4.8-12-3.3-20.7
		c3.6-21.2,19.1-32.4,40.5-29.3c4.3,0.6,8.4,0.7,12,0.2c7.7-1,14-4.8,19.2-11.7l-5.6-3.5c-5.1,5.3-10.9,10.1-20.4,8.1l-1.2-0.3
		l0.7-1c7.1-9.9,8.3-20,3.8-30.9l-5.7,2.6c2.7,9,1.7,17.1-2.6,22.7c-4.3,5.5-11.6,8.4-20.8,8l-0.8,0l0-0.8
		c0.3-14.9,4.8-21.5,17.4-25c-0.1-3.5-0.6-5.3-1.5-5.8c-0.9-0.6-2.7-0.3-6,1.1c-2.1,0.9-4,2-6,3.1c-0.9,0.5-1.8,1.1-2.8,1.6
		l-0.8,0.4l-5.3-10.8c-0.2,0.1-0.5,0.3-0.7,0.4c-0.9,0.5-1.6,0.9-2.3,1.4c-0.7,0.5-1.4,1-2.1,1.6l-0.3,0.3c7.7,18.2,5.7,35.6-5,42.5
		l-0.6,0.4l-0.5-0.5c-7.7-8.5-10.4-19.1-7.9-31.3c2.3-11.3,8-18.6,17-21.7c4.6-1.6,5.8-3.7,4.5-8.4c-13.2,2.3-22.2,10.6-27.6,25.4
		l-0.3,0.9l-0.8-0.5c-1-0.6-2-1.1-3-1.7c-2-1.2-3.9-2.3-5.9-3.1c-3.2-1.4-5-1.7-5.9-1.1c-0.9,0.6-1.4,2.2-1.7,5.7
		c13.9,3.3,16.7,11.1,17.2,25.4l0,0.8l-0.8,0c-0.1,0-0.2,0-0.3,0c-8.9,0-16.1-3-20.3-8.4c-4.2-5.6-5.2-13.4-2.7-22.6l-5.5-2.4
		c-4.7,10.7-3.4,20.9,3.9,31l0.8,1l-1.3,0.3c-9.4,1.9-15.4-2.9-20.6-8.1l-5.4,3.5c0.4,0.4,0.8,0.9,1.2,1.3c1.2,1.3,2.2,2.5,3.4,3.5
		c6.9,6.2,15.3,8.2,27.5,6.4c11.2-1.6,20.3,0.7,27.8,7c2.5,2.1,3.8,4.4,1.8,8.5c-6.7,13.7-6.7,27.1,0,39.8c1.8,3.5,1.5,6-1,8.8
		c-2.2,2.4-8.1,9.4-13.2,15.6c-2.4,2.9-4.7,5.7-6.5,7.8l-0.4,0.4l-0.5-0.2c-32.2-11.6-53.8-42.4-53.8-76.6
		c0-44.9,36.6-81.5,81.5-81.5c44.9,0,81.5,36.6,81.5,81.5C1334.3,274,1313.4,304.5,1282.2,316.6z"/>
</g>
</svg>
